{
  "accessors": [
    {
      "bufferView": 2,
      "componentType": 5126,
      "count": 46746,
      "max": [
        1.3033589124679565,
        0.990383505821228,
        0.03063044138252735
      ],
      "min": [
        -1.3058773279190063,
        -0.3829974830150604,
        -0.462681382894516
      ],
      "type": "VEC3"
    },
    {
      "bufferView": 2,
      "byteOffset": 560952,
      "componentType": 5126,
      "count": 46746,
      "max": [
        0.9998433589935303,
        0.9999421834945679,
        1.0
      ],
      "min": [
        -0.9999586343765259,
        -0.9999476671218872,
        -1.0
      ],
      "type": "VEC3"
    },
    {
      "bufferView": 1,
      "componentType": 5126,
      "count": 46746,
      "max": [
        1.0000001192092896,
        1.0000001192092896
      ],
      "min": [
        0.0,
        0.0
      ],
      "type": "VEC2"
    },
    {
      "bufferView": 0,
      "componentType": 5125,
      "count": 274176,
      "type": "SCALAR"
    },
    {
      "bufferView": 2,
      "byteOffset": 1121904,
      "componentType": 5126,
      "count": 65532,
      "max": [
        1.0712811946868896,
        1.3549280166625977,
        1.3930063247680664
      ],
      "min": [
        -1.2351040840148926,
        -0.8062344193458557,
        -0.7361992597579956
      ],
      "type": "VEC3"
    },
    {
      "bufferView": 2,
      "byteOffset": 1908288,
      "componentType": 5126,
      "count": 65532,
      "max": [
        0.9998131990432739,
        0.9999778270721436,
        0.999998927116394
      ],
      "min": [
        -0.9999934434890747,
        -0.9986721873283386,
        -0.9999973773956299
      ],
      "type": "VEC3"
    },
    {
      "bufferView": 1,
      "byteOffset": 373968,
      "componentType": 5126,
      "count": 65532,
      "max": [
        0.7500001192092896,
        0.7500002980232239
      ],
      "min": [
        0.2499999850988388,
        0.0
      ],
      "type": "VEC2"
    },
    {
      "bufferView": 0,
      "byteOffset": 1096704,
      "componentType": 5125,
      "count": 259626,
      "type": "SCALAR"
    },
    {
      "bufferView": 2,
      "byteOffset": 2694672,
      "componentType": 5126,
      "count": 8380,
      "max": [
        1.2000219821929932,
        1.3059070110321045,
        1.3813366889953613
      ],
      "min": [
        -0.9858227372169495,
        -0.8062344193458557,
        -0.7306056022644043
      ],
      "type": "VEC3"
    },
    {
      "bufferView": 2,
      "byteOffset": 2795232,
      "componentType": 5126,
      "count": 8380,
      "max": [
        0.9999935626983643,
        0.9997504949569702,
        0.9998550415039063
      ],
      "min": [
        -0.9991083145141602,
        -0.9983736276626587,
        -0.9983382821083069
      ],
      "type": "VEC3"
    },
    {
      "bufferView": 1,
      "byteOffset": 898224,
      "componentType": 5126,
      "count": 8380,
      "max": [
        0.7500001192092896,
        0.7500002980232239
      ],
      "min": [
        0.2552083432674408,
        0.0
      ],
      "type": "VEC2"
    },
    {
      "bufferView": 0,
      "byteOffset": 2135208,
      "componentType": 5125,
      "count": 30678,
      "type": "SCALAR"
    },
    {
      "bufferView": 2,
      "byteOffset": 2895792,
      "componentType": 5126,
      "count": 32371,
      "max": [
        0.7358602285385132,
        0.034570157527923584,
        0.6337882280349731
      ],
      "min": [
        -0.7718534469604492,
        -0.6997321844100952,
        -0.6634470820426941
      ],
      "type": "VEC3"
    },
    {
      "bufferView": 2,
      "byteOffset": 3284244,
      "componentType": 5126,
      "count": 32371,
      "max": [
        0.42043253779411316,
        -0.5387009978294373,
        0.04910453408956528
      ],
      "min": [
        -0.5458730459213257,
        -0.9999457597732544,
        -0.797713577747345
      ],
      "type": "VEC3"
    },
    {
      "bufferView": 1,
      "byteOffset": 965264,
      "componentType": 5126,
      "count": 32371,
      "max": [
        1.0000001192092896,
        1.000000238418579
      ],
      "min": [
        0.0,
        0.9999998807907104
      ],
      "type": "VEC2"
    },
    {
      "bufferView": 0,
      "byteOffset": 2257920,
      "componentType": 5125,
      "count": 98304,
      "type": "SCALAR"
    }
  ],
  "asset": {
    "extras": {
      "author": "Kiwwix (https://sketchfab.com/Kiwwix)",
      "license": "CC-BY-4.0 (http://creativecommons.org/licenses/by/4.0/)",
      "source": "https://sketchfab.com/3d-models/witchs-boiler-6a3909ca3a7e4c449d5538be6b80357d",
      "title": "Witch's boiler"
    },
    "generator": "Sketchfab-12.68.0",
    "version": "2.0"
  },
  "bufferViews": [
    {
      "buffer": 0,
      "byteLength": 2651136,
      "name": "floatBufferViews",
      "target": 34963
    },
    {
      "buffer": 0,
      "byteLength": 1224232,
      "byteOffset": 2651136,
      "byteStride": 8,
      "name": "floatBufferViews",
      "target": 34962
    },
    {
      "buffer": 0,
      "byteLength": 3672696,
      "byteOffset": 3875368,
      "byteStride": 12,
      "name": "floatBufferViews",
      "target": 34962
    }
  ],
  "buffers": [
    {
      "byteLength": 7548064,
      "uri": "scene.bin"
    }
  ],
  "materials": [
    {
      "doubleSided": true,
      "name": "Material.033",
      "pbrMetallicRoughness": {
        "baseColorFactor": [
          0.201248,
          0.201248,
          0.201248,
          1.0
        ],
        "roughnessFactor": 0.0
      }
    },
    {
      "doubleSided": true,
      "name": "Material.032",
      "pbrMetallicRoughness": {
        "baseColorFactor": [
          0.0119306,
          0.0119306,
          0.0119306,
          1.0
        ],
        "roughnessFactor": 0.322727
      }
    },
    {
      "doubleSided": true,
      "name": "Material.034",
      "pbrMetallicRoughness": {
        "baseColorFactor": [
          1.0,
          0.00651199,
          0.887923,
          1.0
        ],
        "metallicFactor": 0.0,
        "roughnessFactor": 0.0
      }
    }
  ],
  "meshes": [
    {
      "name": "Object_0",
      "primitives": [
        {
          "attributes": {
            "NORMAL": 1,
            "POSITION": 0,
            "TEXCOORD_0": 2
          },
          "indices": 3,
          "material": 0,
          "mode": 4
        }
      ]
    },
    {
      "name": "Object_1",
      "primitives": [
        {
          "attributes": {
            "NORMAL": 5,
            "POSITION": 4,
            "TEXCOORD_0": 6
          },
          "indices": 7,
          "material": 1,
          "mode": 4
        }
      ]
    },
    {
      "name": "Object_2",
      "primitives": [
        {
          "attributes": {
            "NORMAL": 9,
            "POSITION": 8,
            "TEXCOORD_0": 10
          },
          "indices": 11,
          "material": 1,
          "mode": 4
        }
      ]
    },
    {
      "name": "Object_3",
      "primitives": [
        {
          "attributes": {
            "NORMAL": 13,
            "POSITION": 12,
            "TEXCOORD_0": 14
          },
          "indices": 15,
          "material": 2,
          "mode": 4
        }
      ]
    }
  ],
  "nodes": [
    {
      "children": [
        1
      ],
      "matrix": [
        0.247380793094635,
        0.0,
        0.0,
        0.0,
        0.0,
        5.4929570468739144e-17,
        -0.247380793094635,
        0.0,
        0.0,
        0.247380793094635,
        5.4929570468739144e-17,
        0.0,
        0.0,
        0.0,
        0.0,
        1.0
      ],
      "name": "Sketchfab_model"
    },
    {
      "children": [
        2
      ],
      "name": "root"
    },
    {
      "children": [
        3
      ],
      "matrix": [
        1.0,
        0.0,
        0.0,
        0.0,
        0.0,
        2.220446049250313e-16,
        1.0,
        0.0,
        0.0,
        -1.0,
        2.220446049250313e-16,
        0.0,
        0.0,
        0.0,
        0.0,
        1.0
      ],
      "name": "GLTF_SceneRootNode"
    },
    {
      "children": [
        4,
        5,
        6,
        7
      ],
      "matrix": [
        2.515000343322754,
        0.0,
        0.0,
        0.0,
        0.0,
        -2.2585464532475985,
        1.2434705128708914,
        0.0,
        0.0,
        -1.2434705128708914,
        -2.2585464532475985,
        0.0,
        0.20717287063598633,
        3.4555089473724365,
        2.4810752868652344,
        1.0
      ],
      "name": "NurbsPath_0"
    },
    {
      "mesh": 0,
      "name": "Object_4"
    },
    {
      "mesh": 1,
      "name": "Object_5"
    },
    {
      "mesh": 2,
      "name": "Object_6"
    },
    {
      "mesh": 3,
      "name": "Object_7"
    }
  ],
  "scene": 0,
  "scenes": [
    {
      "name": "Sketchfab_Scene",
      "nodes": [
        0
      ]
    }
  ]
}
