{
  "accessors": [
    {
      "bufferView": 2,
      "componentType": 5126,
      "count": 586,
      "max": [
        331.07080078125,
        308.336669921875,
        1460.415771484375
      ],
      "min": [
        -464.04205322265625,
        -277.9970703125,
        0.3498116433620453
      ],
      "type": "VEC3"
    },
    {
      "bufferView": 2,
      "byteOffset": 7032,
      "componentType": 5126,
      "count": 586,
      "max": [
        0.9998898506164551,
        0.9983093738555908,
        0.9999685287475586
      ],
      "min": [
        -0.999174952507019,
        -0.9999327659606934,
        -1.0
      ],
      "type": "VEC3"
    },
    {
      "bufferView": 3,
      "componentType": 5126,
      "count": 586,
      "max": [
        0.999962329864502,
        0.9998853206634521,
        0.8495628237724304,
        1.0
      ],
      "min": [
        -0.9999042749404907,
        -0.9958049654960632,
        -0.8146946430206299,
        1.0
      ],
      "type": "VEC4"
    },
    {
      "bufferView": 1,
      "componentType": 5126,
      "count": 586,
      "max": [
        0.27294921875,
        0.38330078125
      ],
      "min": [
        0.0,
        0.000244140625
      ],
      "type": "VEC2"
    },
    {
      "bufferView": 0,
      "componentType": 5125,
      "count": 2262,
      "type": "SCALAR"
    },
    {
      "bufferView": 2,
      "byteOffset": 14064,
      "componentType": 5126,
      "count": 2090,
      "max": [
        591.5262451171875,
        563.6993408203125,
        1590.9840087890625
      ],
      "min": [
        -686.567626953125,
        -562.6455078125,
        365.10595703125
      ],
      "type": "VEC3"
    },
    {
      "bufferView": 2,
      "byteOffset": 39144,
      "componentType": 5126,
      "count": 2090,
      "max": [
        0.9985677599906921,
        0.9935768246650696,
        0.9998583793640137
      ],
      "min": [
        -0.9990639686584473,
        -0.9971722960472107,
        -0.9779125452041626
      ],
      "type": "VEC3"
    },
    {
      "bufferView": 3,
      "byteOffset": 9376,
      "componentType": 5126,
      "count": 2090,
      "max": [
        0.9989092946052551,
        0.999821126461029,
        0.8152264356613159,
        1.0
      ],
      "min": [
        -0.9565234184265137,
        -0.9970751404762268,
        -0.864804208278656,
        1.0
      ],
      "type": "VEC4"
    },
    {
      "bufferView": 1,
      "byteOffset": 4688,
      "componentType": 5126,
      "count": 2090,
      "max": [
        0.199462890625,
        0.3916015625
      ],
      "min": [
        0.00048828125,
        0.19189453125
      ],
      "type": "VEC2"
    },
    {
      "bufferView": 0,
      "byteOffset": 9048,
      "componentType": 5125,
      "count": 5796,
      "type": "SCALAR"
    },
    {
      "bufferView": 2,
      "byteOffset": 64224,
      "componentType": 5126,
      "count": 2794,
      "max": [
        860.2789306640625,
        38.1649169921875,
        1810.0159912109375
      ],
      "min": [
        -860.3499755859375,
        -675.9840087890625,
        -15.031795501708984
      ],
      "type": "VEC3"
    },
    {
      "bufferView": 2,
      "byteOffset": 97752,
      "componentType": 5126,
      "count": 2794,
      "max": [
        1.0,
        1.0,
        1.0
      ],
      "min": [
        -1.0,
        -1.0,
        -1.0
      ],
      "type": "VEC3"
    },
    {
      "bufferView": 3,
      "byteOffset": 42816,
      "componentType": 5126,
      "count": 2794,
      "max": [
        1.0,
        1.0,
        1.0,
        1.0
      ],
      "min": [
        -1.0,
        -1.0,
        -1.0,
        1.0
      ],
      "type": "VEC4"
    },
    {
      "bufferView": 1,
      "byteOffset": 21408,
      "componentType": 5126,
      "count": 2794,
      "max": [
        0.99951171875,
        0.499755859375
      ],
      "min": [
        0.500732421875,
        0.000732421875
      ],
      "type": "VEC2"
    },
    {
      "bufferView": 0,
      "byteOffset": 32232,
      "componentType": 5125,
      "count": 4962,
      "type": "SCALAR"
    },
    {
      "bufferView": 2,
      "byteOffset": 131280,
      "componentType": 5126,
      "count": 278,
      "max": [
        62.03726577758789,
        49.55842590332031,
        195.9618377685547
      ],
      "min": [
        -62.55999755859375,
        -52.28250503540039,
        -0.06984127312898636
      ],
      "type": "VEC3"
    },
    {
      "bufferView": 2,
      "byteOffset": 134616,
      "componentType": 5126,
      "count": 278,
      "max": [
        0.9751816391944885,
        0.9891920685768127,
        0.9950222373008728
      ],
      "min": [
        -0.9843366146087646,
        -0.9925176501274109,
        -0.9873680472373962
      ],
      "type": "VEC3"
    },
    {
      "bufferView": 3,
      "byteOffset": 87520,
      "componentType": 5126,
      "count": 278,
      "max": [
        0.9999650716781616,
        0.9770525097846985,
        0.8606652021408081,
        1.0
      ],
      "min": [
        -0.9993043541908264,
        -0.9929738640785217,
        -0.9691727161407471,
        1.0
      ],
      "type": "VEC4"
    },
    {
      "bufferView": 1,
      "byteOffset": 43760,
      "componentType": 5126,
      "count": 278,
      "max": [
        0.99560546875,
        0.685546875
      ],
      "min": [
        0.721923828125,
        0.515625
      ],
      "type": "VEC2"
    },
    {
      "bufferView": 0,
      "byteOffset": 52080,
      "componentType": 5125,
      "count": 1290,
      "type": "SCALAR"
    },
    {
      "bufferView": 2,
      "byteOffset": 137952,
      "componentType": 5126,
      "count": 2288,
      "max": [
        99.7978515625,
        226.35772705078125,
        495.1223449707031
      ],
      "min": [
        -99.79779052734375,
        -140.67091369628906,
        1.1920931797249068e-07
      ],
      "type": "VEC3"
    },
    {
      "bufferView": 2,
      "byteOffset": 165408,
      "componentType": 5126,
      "count": 2288,
      "max": [
        1.0,
        1.0,
        1.0
      ],
      "min": [
        -1.0,
        -1.0,
        -1.0
      ],
      "type": "VEC3"
    },
    {
      "bufferView": 3,
      "byteOffset": 91968,
      "componentType": 5126,
      "count": 2288,
      "max": [
        1.0,
        1.0,
        1.0,
        1.0
      ],
      "min": [
        -1.0,
        -1.0,
        -1.0,
        1.0
      ],
      "type": "VEC4"
    },
    {
      "bufferView": 1,
      "byteOffset": 45984,
      "componentType": 5126,
      "count": 2288,
      "max": [
        0.592041015625,
        0.6357421875
      ],
      "min": [
        0.001220703125,
        0.39990234375
      ],
      "type": "VEC2"
    },
    {
      "bufferView": 0,
      "byteOffset": 57240,
      "componentType": 5125,
      "count": 6558,
      "type": "SCALAR"
    },
    {
      "bufferView": 2,
      "byteOffset": 192864,
      "componentType": 5126,
      "count": 169,
      "max": [
        27.3880615234375,
        -21.69500732421875,
        387.9278564453125
      ],
      "min": [
        -27.387939453125,
        -83.57866668701172,
        314.03399658203125
      ],
      "type": "VEC3"
    },
    {
      "bufferView": 2,
      "byteOffset": 194892,
      "componentType": 5126,
      "count": 169,
      "max": [
        0.9729288816452026,
        0.9834827780723572,
        0.8272547721862793
      ],
      "min": [
        -0.9729262590408325,
        -0.9855847358703613,
        -0.9878388047218323
      ],
      "type": "VEC3"
    },
    {
      "bufferView": 3,
      "byteOffset": 128576,
      "componentType": 5126,
      "count": 169,
      "max": [
        0.9989740252494812,
        0.8493936061859131,
        0.4904014468193054,
        1.0
      ],
      "min": [
        -0.9989740252494812,
        -0.8493934869766235,
        -0.4903988540172577,
        1.0
      ],
      "type": "VEC4"
    },
    {
      "bufferView": 1,
      "byteOffset": 64288,
      "componentType": 5126,
      "count": 169,
      "max": [
        0.309814453125,
        0.51904296875
      ],
      "min": [
        0.2177734375,
        0.413818359375
      ],
      "type": "VEC2"
    },
    {
      "bufferView": 0,
      "byteOffset": 83472,
      "componentType": 5125,
      "count": 810,
      "type": "SCALAR"
    },
    {
      "bufferView": 2,
      "byteOffset": 196920,
      "componentType": 5126,
      "count": 3182,
      "max": [
        374.6893310546875,
        400.8573303222656,
        1223.8984375
      ],
      "min": [
        -374.6892395019531,
        -333.1523132324219,
        -3.365497104823589e-05
      ],
      "type": "VEC3"
    },
    {
      "bufferView": 2,
      "byteOffset": 235104,
      "componentType": 5126,
      "count": 3182,
      "max": [
        1.0,
        1.0,
        1.0
      ],
      "min": [
        -1.0,
        -1.0,
        -1.0
      ],
      "type": "VEC3"
    },
    {
      "bufferView": 3,
      "byteOffset": 131280,
      "componentType": 5126,
      "count": 3182,
      "max": [
        1.0,
        1.0,
        1.0,
        1.0
      ],
      "min": [
        -1.0,
        -1.0,
        -1.0,
        1.0
      ],
      "type": "VEC4"
    },
    {
      "bufferView": 1,
      "byteOffset": 65640,
      "componentType": 5126,
      "count": 3182,
      "max": [
        0.998291015625,
        0.998046875
      ],
      "min": [
        0.514892578125,
        0.62255859375
      ],
      "type": "VEC2"
    },
    {
      "bufferView": 0,
      "byteOffset": 86712,
      "componentType": 5125,
      "count": 11376,
      "type": "SCALAR"
    },
    {
      "bufferView": 2,
      "byteOffset": 273288,
      "componentType": 5126,
      "count": 2206,
      "max": [
        2389.3740234375,
        1882.221435546875,
        2500.00048828125
      ],
      "min": [
        -2401.16064453125,
        -1882.221435546875,
        0.0
      ],
      "type": "VEC3"
    },
    {
      "bufferView": 2,
      "byteOffset": 299760,
      "componentType": 5126,
      "count": 2206,
      "max": [
        1.0,
        1.0,
        1.0
      ],
      "min": [
        -1.0,
        -1.0,
        -1.0
      ],
      "type": "VEC3"
    },
    {
      "bufferView": 3,
      "byteOffset": 182192,
      "componentType": 5126,
      "count": 2206,
      "max": [
        1.0,
        1.0,
        1.0,
        1.0
      ],
      "min": [
        -1.0,
        -1.0,
        -1.0,
        -1.0
      ],
      "type": "VEC4"
    },
    {
      "bufferView": 1,
      "byteOffset": 91096,
      "componentType": 5126,
      "count": 2206,
      "max": [
        0.998291015625,
        1.0
      ],
      "min": [
        0.0,
        0.001220703125
      ],
      "type": "VEC2"
    },
    {
      "bufferView": 0,
      "byteOffset": 132216,
      "componentType": 5125,
      "count": 3900,
      "type": "SCALAR"
    },
    {
      "bufferView": 2,
      "byteOffset": 326232,
      "componentType": 5126,
      "count": 36,
      "max": [
        2240.625732421875,
        584.3921508789063,
        1914.6806640625
      ],
      "min": [
        -2303.911865234375,
        -1140.6976318359375,
        807.0046997070313
      ],
      "type": "VEC3"
    },
    {
      "bufferView": 2,
      "byteOffset": 326664,
      "componentType": 5126,
      "count": 36,
      "max": [
        1.0,
        9.525306268187705e-07,
        4.469302938804251e-14
      ],
      "min": [
        -1.0,
        -9.52530854192446e-07,
        -4.469301922364714e-14
      ],
      "type": "VEC3"
    },
    {
      "bufferView": 3,
      "byteOffset": 217488,
      "componentType": 5126,
      "count": 36,
      "max": [
        9.525309110358648e-07,
        1.0,
        0.0,
        1.0
      ],
      "min": [
        -9.525306836621894e-07,
        -1.0,
        -1.6777295620868185e-20,
        1.0
      ],
      "type": "VEC4"
    },
    {
      "bufferView": 1,
      "byteOffset": 108744,
      "componentType": 5126,
      "count": 36,
      "max": [
        0.484130859375,
        0.774658203125
      ],
      "min": [
        0.246337890625,
        0.088623046875
      ],
      "type": "VEC2"
    },
    {
      "bufferView": 0,
      "byteOffset": 147816,
      "componentType": 5125,
      "count": 36,
      "type": "SCALAR"
    }
  ],
  "asset": {
    "extras": {
      "author": "avatrass (https://sketchfab.com/avatrass)",
      "license": "CC-BY-4.0 (http://creativecommons.org/licenses/by/4.0/)",
      "source": "https://sketchfab.com/3d-models/stylised-room-08edc52987f1491c9de0cc45a9f43d00",
      "title": "Stylised Room"
    },
    "generator": "Sketchfab-12.65.0",
    "version": "2.0"
  },
  "bufferViews": [
    {
      "buffer": 0,
      "byteLength": 147960,
      "name": "floatBufferViews",
      "target": 34963
    },
    {
      "buffer": 0,
      "byteLength": 109032,
      "byteOffset": 147960,
      "byteStride": 8,
      "name": "floatBufferViews",
      "target": 34962
    },
    {
      "buffer": 0,
      "byteLength": 327096,
      "byteOffset": 256992,
      "byteStride": 12,
      "name": "floatBufferViews",
      "target": 34962
    },
    {
      "buffer": 0,
      "byteLength": 218064,
      "byteOffset": 584088,
      "byteStride": 16,
      "name": "floatBufferViews",
      "target": 34962
    }
  ],
  "buffers": [
    {
      "byteLength": 802152,
      "uri": "scene.bin"
    }
  ],
  "images": [
    {
      "uri": "textures/Material_Base_baseColor.png"
    },
    {
      "uri": "textures/Material_Base_metallicRoughness.png"
    },
    {
      "uri": "textures/Material_Base_normal.png"
    },
    {
      "uri": "textures/Material_Emission_metallicRoughness.png"
    }
  ],
  "materials": [
    {
      "name": "Material_Base",
      "normalTexture": {
        "index": 2
      },
      "occlusionTexture": {
        "index": 1
      },
      "pbrMetallicRoughness": {
        "baseColorTexture": {
          "index": 0
        },
        "metallicRoughnessTexture": {
          "index": 1
        }
      }
    },
    {
      "doubleSided": true,
      "name": "Material_2sided",
      "normalTexture": {
        "index": 2
      },
      "occlusionTexture": {
        "index": 1
      },
      "pbrMetallicRoughness": {
        "baseColorTexture": {
          "index": 0
        },
        "metallicRoughnessTexture": {
          "index": 1
        }
      }
    },
    {
      "emissiveFactor": [
        1.0,
        1.0,
        1.0
      ],
      "name": "Material_Emission",
      "normalTexture": {
        "index": 2
      },
      "pbrMetallicRoughness": {
        "baseColorTexture": {
          "index": 0
        },
        "metallicRoughnessTexture": {
          "index": 3
        }
      }
    },
    {
      "alphaMode": "BLEND",
      "name": "Material_Transparent",
      "normalTexture": {
        "index": 2
      },
      "occlusionTexture": {
        "index": 1
      },
      "pbrMetallicRoughness": {
        "baseColorFactor": [
          1.0,
          1.0,
          1.0,
          0.5
        ],
        "baseColorTexture": {
          "index": 0
        },
        "metallicRoughnessTexture": {
          "index": 1
        }
      }
    }
  ],
  "meshes": [
    {
      "name": "LP_Chunk_00.006_Material_Base_0",
      "primitives": [
        {
          "attributes": {
            "NORMAL": 1,
            "POSITION": 0,
            "TANGENT": 2,
            "TEXCOORD_0": 3
          },
          "indices": 4,
          "material": 0,
          "mode": 4
        }
      ]
    },
    {
      "name": "LP_Chunk_00.006_Material_2sided_0",
      "primitives": [
        {
          "attributes": {
            "NORMAL": 6,
            "POSITION": 5,
            "TANGENT": 7,
            "TEXCOORD_0": 8
          },
          "indices": 9,
          "material": 1,
          "mode": 4
        }
      ]
    },
    {
      "name": "LP_Chunk_00.005_Material_Base_0",
      "primitives": [
        {
          "attributes": {
            "NORMAL": 11,
            "POSITION": 10,
            "TANGENT": 12,
            "TEXCOORD_0": 13
          },
          "indices": 14,
          "material": 0,
          "mode": 4
        }
      ]
    },
    {
      "name": "LP_Chunk_00.004_Material_Base_0",
      "primitives": [
        {
          "attributes": {
            "NORMAL": 16,
            "POSITION": 15,
            "TANGENT": 17,
            "TEXCOORD_0": 18
          },
          "indices": 19,
          "material": 0,
          "mode": 4
        }
      ]
    },
    {
      "name": "LP_Chunk_00.003_Material_Base_0",
      "primitives": [
        {
          "attributes": {
            "NORMAL": 21,
            "POSITION": 20,
            "TANGENT": 22,
            "TEXCOORD_0": 23
          },
          "indices": 24,
          "material": 0,
          "mode": 4
        }
      ]
    },
    {
      "name": "LP_Chunk_00.003_Material_Emission_0",
      "primitives": [
        {
          "attributes": {
            "NORMAL": 26,
            "POSITION": 25,
            "TANGENT": 27,
            "TEXCOORD_0": 28
          },
          "indices": 29,
          "material": 2,
          "mode": 4
        }
      ]
    },
    {
      "name": "LP_Chunk_00.002_Material_Base_0",
      "primitives": [
        {
          "attributes": {
            "NORMAL": 31,
            "POSITION": 30,
            "TANGENT": 32,
            "TEXCOORD_0": 33
          },
          "indices": 34,
          "material": 0,
          "mode": 4
        }
      ]
    },
    {
      "name": "LP_Chunk_00_Material_Base_0",
      "primitives": [
        {
          "attributes": {
            "NORMAL": 36,
            "POSITION": 35,
            "TANGENT": 37,
            "TEXCOORD_0": 38
          },
          "indices": 39,
          "material": 0,
          "mode": 4
        }
      ]
    },
    {
      "name": "LP_Chunk_00_Material_Transparent_0",
      "primitives": [
        {
          "attributes": {
            "NORMAL": 41,
            "POSITION": 40,
            "TANGENT": 42,
            "TEXCOORD_0": 43
          },
          "indices": 44,
          "material": 3,
          "mode": 4
        }
      ]
    }
  ],
  "nodes": [
    {
      "children": [
        1
      ],
      "matrix": [
        0.0010416667209938169,
        0.0,
        0.0,
        0.0,
        0.0,
        2.312964755266249e-19,
        -0.0010416667209938169,
        0.0,
        0.0,
        0.0010416667209938169,
        2.312964755266249e-19,
        0.0,
        0.0,
        0.0,
        0.0,
        1.0
      ],
      "name": "Sketchfab_model"
    },
    {
      "children": [
        2
      ],
      "matrix": [
        1.0,
        0.0,
        0.0,
        0.0,
        0.0,
        0.0,
        1.0,
        0.0,
        0.0,
        -1.0,
        0.0,
        0.0,
        0.0,
        0.0,
        0.0,
        1.0
      ],
      "name": "Room_Full.fbx"
    },
    {
      "children": [
        3,
        6,
        8,
        10,
        13,
        15
      ],
      "name": "RootNode"
    },
    {
      "children": [
        4,
        5
      ],
      "matrix": [
        1.0,
        0.0,
        0.0,
        0.0,
        0.0,
        -1.6292067939183141e-07,
        -0.9999999999999868,
        0.0,
        0.0,
        0.9999999999999868,
        -1.6292067939183141e-07,
        0.0,
        1453.0692138671875,
        0.0,
        1312.721435546875,
        1.0
      ],
      "name": "LP_Chunk_00.006"
    },
    {
      "mesh": 0,
      "name": "LP_Chunk_00.006_Material_Base_0"
    },
    {
      "mesh": 1,
      "name": "LP_Chunk_00.006_Material_2sided_0"
    },
    {
      "children": [
        7
      ],
      "matrix": [
        1.0,
        0.0,
        0.0,
        0.0,
        0.0,
        -1.6292067939183141e-07,
        -0.9999999999999868,
        0.0,
        0.0,
        0.9999999999999868,
        -1.6292067939183141e-07,
        0.0,
        0.03551292419433594,
        15.031795501708984,
        -1792.565673828125,
        1.0
      ],
      "name": "LP_Chunk_00.005"
    },
    {
      "mesh": 2,
      "name": "LP_Chunk_00.005_Material_Base_0"
    },
    {
      "children": [
        9
      ],
      "matrix": [
        -0.9863085846372381,
        -1.249000902703301e-16,
        0.1649102054782787,
        0.0,
        0.16491020547827556,
        1.9470718881642313e-07,
        0.9863085846372194,
        0.0,
        -3.2109202657837344e-08,
        0.999999999999981,
        -1.9204137191586312e-07,
        0.0,
        132.68690490722656,
        804.6820068359375,
        -1267.490234375,
        1.0
      ],
      "name": "LP_Chunk_00.004"
    },
    {
      "mesh": 3,
      "name": "LP_Chunk_00.004_Material_Base_0"
    },
    {
      "children": [
        11,
        12
      ],
      "matrix": [
        0.674187875498821,
        -5.551115123125783e-17,
        0.7385598882490074,
        0.0,
        0.7385598882489977,
        -1.6292067961387602e-07,
        -0.674187875498812,
        0.0,
        1.2032667884298576e-07,
        0.9999999999999867,
        -1.0983914688900143e-07,
        0.0,
        599.6165161132813,
        804.6820068359375,
        -1378.012451171875,
        1.0
      ],
      "name": "LP_Chunk_00.003"
    },
    {
      "mesh": 4,
      "name": "LP_Chunk_00.003_Material_Base_0"
    },
    {
      "mesh": 5,
      "name": "LP_Chunk_00.003_Material_Emission_0"
    },
    {
      "children": [
        14
      ],
      "matrix": [
        0.9282098977328568,
        2.7755575615628914e-17,
        0.3720569657334203,
        0.0,
        0.37205696573341995,
        -4.371139006309477e-08,
        -0.9282098977328559,
        0.0,
        1.626312715052869e-08,
        0.9999999999999991,
        -4.057334490603637e-08,
        0.0,
        -323.763916015625,
        0.0,
        -194.1365509033203,
        1.0
      ],
      "name": "LP_Chunk_00.002"
    },
    {
      "mesh": 6,
      "name": "LP_Chunk_00.002_Material_Base_0"
    },
    {
      "children": [
        16,
        17
      ],
      "matrix": [
        1.0,
        0.0,
        0.0,
        0.0,
        0.0,
        -1.6292067939183141e-07,
        -0.9999999999999868,
        0.0,
        0.0,
        0.9999999999999868,
        -1.6292067939183141e-07,
        0.0,
        0.0,
        0.0,
        0.0,
        1.0
      ],
      "name": "LP_Chunk_00"
    },
    {
      "mesh": 7,
      "name": "LP_Chunk_00_Material_Base_0"
    },
    {
      "mesh": 8,
      "name": "LP_Chunk_00_Material_Transparent_0"
    }
  ],
  "samplers": [
    {
      "magFilter": 9729,
      "minFilter": 9987,
      "wrapS": 10497,
      "wrapT": 10497
    }
  ],
  "scene": 0,
  "scenes": [
    {
      "name": "Sketchfab_Scene",
      "nodes": [
        0
      ]
    }
  ],
  "textures": [
    {
      "sampler": 0,
      "source": 0
    },
    {
      "sampler": 0,
      "source": 1
    },
    {
      "sampler": 0,
      "source": 2
    },
    {
      "sampler": 0,
      "source": 3
    }
  ]
}
