{
  "accessors": [
    {
      "bufferView": 2,
      "componentType": 5126,
      "count": 2117,
      "max": [
        2.142522096633911,
        0.8672553300857544,
        0.8672552704811096
      ],
      "min": [
        -2.142522096633911,
        -0.8672550320625305,
        -0.867254912853241
      ],
      "type": "VEC3"
    },
    {
      "bufferView": 2,
      "byteOffset": 25404,
      "componentType": 5126,
      "count": 2117,
      "max": [
        1.0,
        1.0,
        1.0
      ],
      "min": [
        -1.0,
        -1.0,
        -1.0
      ],
      "type": "VEC3"
    },
    {
      "bufferView": 3,
      "componentType": 5126,
      "count": 2117,
      "max": [
        0.8171817064285278,
        0.9974262714385986,
        0.9977275729179382,
        1.0
      ],
      "min": [
        -1.0,
        -0.9984447360038757,
        -0.9790458083152771,
        1.0
      ],
      "type": "VEC4"
    },
    {
      "bufferView": 1,
      "componentType": 5126,
      "count": 2117,
      "max": [
        0.9826717376708984,
        0.9995733499526978
      ],
      "min": [
        0.22653746604919434,
        0.0004266202449798584
      ],
      "type": "VEC2"
    },
    {
      "bufferView": 1,
      "byteOffset": 16936,
      "componentType": 5126,
      "count": 2117,
      "max": [
        0.9826717376708984,
        0.9995733499526978
      ],
      "min": [
        0.22653746604919434,
        0.0004266202449798584
      ],
      "type": "VEC2"
    },
    {
      "bufferView": 1,
      "byteOffset": 33872,
      "componentType": 5126,
      "count": 2117,
      "max": [
        0.9826717376708984,
        0.9995733499526978
      ],
      "min": [
        0.22653746604919434,
        0.0004266202449798584
      ],
      "type": "VEC2"
    },
    {
      "bufferView": 1,
      "byteOffset": 50808,
      "componentType": 5126,
      "count": 2117,
      "max": [
        0.9826717376708984,
        0.9995733499526978
      ],
      "min": [
        0.22653746604919434,
        0.0004266202449798584
      ],
      "type": "VEC2"
    },
    {
      "bufferView": 1,
      "byteOffset": 67744,
      "componentType": 5126,
      "count": 2117,
      "max": [
        0.9826717376708984,
        0.9995733499526978
      ],
      "min": [
        0.22653746604919434,
        0.0004266202449798584
      ],
      "type": "VEC2"
    },
    {
      "bufferView": 0,
      "componentType": 5125,
      "count": 7104,
      "type": "SCALAR"
    },
    {
      "bufferView": 2,
      "byteOffset": 50808,
      "componentType": 5126,
      "count": 1378,
      "max": [
        1.2566643953323364,
        0.5813646912574768,
        1.766391396522522
      ],
      "min": [
        -1.2566643953323364,
        -3.8150410652160645,
        -0.5743268728256226
      ],
      "type": "VEC3"
    },
    {
      "bufferView": 2,
      "byteOffset": 67344,
      "componentType": 5126,
      "count": 1378,
      "max": [
        0.7949821352958679,
        0.9999832510948181,
        1.0
      ],
      "min": [
        -0.7949820756912231,
        -0.9999832510948181,
        -1.0
      ],
      "type": "VEC3"
    },
    {
      "bufferView": 3,
      "byteOffset": 33872,
      "componentType": 5126,
      "count": 1378,
      "max": [
        1.0,
        0.743373453617096,
        0.7641928195953369,
        1.0
      ],
      "min": [
        -1.0,
        -0.7433735132217407,
        -0.7641925811767578,
        -1.0
      ],
      "type": "VEC4"
    },
    {
      "bufferView": 1,
      "byteOffset": 84680,
      "componentType": 5126,
      "count": 1378,
      "max": [
        0.4384245276451111,
        0.8831737637519836
      ],
      "min": [
        0.0004266388714313507,
        0.0004266500473022461
      ],
      "type": "VEC2"
    },
    {
      "bufferView": 1,
      "byteOffset": 95704,
      "componentType": 5126,
      "count": 1378,
      "max": [
        0.4384245276451111,
        0.8831737637519836
      ],
      "min": [
        0.0004266388714313507,
        0.0004266500473022461
      ],
      "type": "VEC2"
    },
    {
      "bufferView": 1,
      "byteOffset": 106728,
      "componentType": 5126,
      "count": 1378,
      "max": [
        0.4384245276451111,
        0.8831737637519836
      ],
      "min": [
        0.0004266388714313507,
        0.0004266500473022461
      ],
      "type": "VEC2"
    },
    {
      "bufferView": 1,
      "byteOffset": 117752,
      "componentType": 5126,
      "count": 1378,
      "max": [
        0.4384245276451111,
        0.8831737637519836
      ],
      "min": [
        0.0004266388714313507,
        0.0004266500473022461
      ],
      "type": "VEC2"
    },
    {
      "bufferView": 1,
      "byteOffset": 128776,
      "componentType": 5126,
      "count": 1378,
      "max": [
        0.4384245276451111,
        0.8831737637519836
      ],
      "min": [
        0.0004266388714313507,
        0.0004266500473022461
      ],
      "type": "VEC2"
    },
    {
      "bufferView": 0,
      "byteOffset": 28416,
      "componentType": 5125,
      "count": 6144,
      "type": "SCALAR"
    }
  ],
  "asset": {
    "extras": {
      "author": "Incg5764 (https://sketchfab.com/incg5764)",
      "license": "CC-BY-4.0 (http://creativecommons.org/licenses/by/4.0/)",
      "source": "https://sketchfab.com/3d-models/very-useful-scroll-904b4dc475674678bbf4f5a33d513c24",
      "title": "Very Useful Scroll"
    },
    "generator": "Sketchfab-14.97.0",
    "version": "2.0"
  },
  "bufferViews": [
    {
      "buffer": 0,
      "byteLength": 52992,
      "name": "floatBufferViews",
      "target": 34963
    },
    {
      "buffer": 0,
      "byteLength": 139800,
      "byteOffset": 52992,
      "byteStride": 8,
      "name": "floatBufferViews",
      "target": 34962
    },
    {
      "buffer": 0,
      "byteLength": 83880,
      "byteOffset": 192792,
      "byteStride": 12,
      "name": "floatBufferViews",
      "target": 34962
    },
    {
      "buffer": 0,
      "byteLength": 55920,
      "byteOffset": 276672,
      "byteStride": 16,
      "name": "floatBufferViews",
      "target": 34962
    }
  ],
  "buffers": [
    {
      "byteLength": 332592,
      "uri": "scene.bin"
    }
  ],
  "extensionsUsed": [
    "KHR_materials_emissive_strength"
  ],
  "images": [
    {
      "uri": "textures/main_baseColor.jpeg"
    },
    {
      "uri": "textures/main_metallicRoughness.png"
    },
    {
      "uri": "textures/main_emissive.jpeg"
    },
    {
      "uri": "textures/main_normal.png"
    }
  ],
  "materials": [
    {
      "doubleSided": true,
      "emissiveFactor": [
        1.0,
        1.0,
        1.0
      ],
      "emissiveTexture": {
        "index": 2
      },
      "extensions": {
        "KHR_materials_emissive_strength": {
          "emissiveStrength": 1.6304811595616289
        }
      },
      "name": "main",
      "normalTexture": {
        "index": 3
      },
      "pbrMetallicRoughness": {
        "baseColorTexture": {
          "index": 0
        },
        "metallicRoughnessTexture": {
          "index": 1
        }
      }
    }
  ],
  "meshes": [
    {
      "name": "Object_0",
      "primitives": [
        {
          "attributes": {
            "NORMAL": 1,
            "POSITION": 0,
            "TANGENT": 2,
            "TEXCOORD_0": 3,
            "TEXCOORD_1": 4,
            "TEXCOORD_2": 5,
            "TEXCOORD_3": 6,
            "TEXCOORD_4": 7
          },
          "indices": 8,
          "material": 0,
          "mode": 4
        }
      ]
    },
    {
      "name": "Object_1",
      "primitives": [
        {
          "attributes": {
            "NORMAL": 10,
            "POSITION": 9,
            "TANGENT": 11,
            "TEXCOORD_0": 12,
            "TEXCOORD_1": 13,
            "TEXCOORD_2": 14,
            "TEXCOORD_3": 15,
            "TEXCOORD_4": 16
          },
          "indices": 17,
          "material": 0,
          "mode": 4
        }
      ]
    }
  ],
  "nodes": [
    {
      "children": [
        1
      ],
      "matrix": [
        1.0,
        0.0,
        0.0,
        0.0,
        0.0,
        2.220446049250313e-16,
        -1.0,
        0.0,
        0.0,
        1.0,
        2.220446049250313e-16,
        0.0,
        0.0,
        0.0,
        0.0,
        1.0
      ],
      "name": "Sketchfab_model"
    },
    {
      "children": [
        2
      ],
      "name": "root"
    },
    {
      "children": [
        3,
        5
      ],
      "matrix": [
        1.0,
        0.0,
        0.0,
        0.0,
        0.0,
        2.220446049250313e-16,
        1.0,
        0.0,
        0.0,
        -1.0,
        2.220446049250313e-16,
        0.0,
        0.0,
        0.0,
        0.0,
        1.0
      ],
      "name": "GLTF_SceneRootNode"
    },
    {
      "children": [
        4
      ],
      "name": "main_0"
    },
    {
      "mesh": 0,
      "name": "Object_4"
    },
    {
      "children": [
        6
      ],
      "name": "paper_1"
    },
    {
      "mesh": 1,
      "name": "Object_6"
    }
  ],
  "samplers": [
    {
      "magFilter": 9729,
      "minFilter": 9987,
      "wrapS": 10497,
      "wrapT": 10497
    }
  ],
  "scene": 0,
  "scenes": [
    {
      "name": "Sketchfab_Scene",
      "nodes": [
        0
      ]
    }
  ],
  "textures": [
    {
      "sampler": 0,
      "source": 0
    },
    {
      "sampler": 0,
      "source": 1
    },
    {
      "sampler": 0,
      "source": 2
    },
    {
      "sampler": 0,
      "source": 3
    }
  ]
}
